<?xml version="1.0" standalone="yes"?>

<svg version="1.1" viewBox="0.0 0.0 48.0 48.0" fill="none" stroke="none" stroke-linecap="square" stroke-miterlimit="10" xmlns="http://www.w3.org/2000/svg" xmlns:xlink="http://www.w3.org/1999/xlink"><clipPath id="p.0"><path d="m0 0l48.0 0l0 48.0l-48.0 0l0 -48.0z" clip-rule="nonzero"></path></clipPath><g clip-path="url(#p.0)"><path fill="#000000" fill-opacity="0.0" d="m0 0l48.0 0l0 48.0l-48.0 0z" fill-rule="nonzero"></path><path fill="#00ff00" d="m28.61395 -0.46456692l7.2440968 0l0 16.125984l-7.2440968 0z" fill-rule="nonzero"></path><path fill="#ffff00" d="m21.54261 -0.40652573l7.244095 0l0 16.125984l-7.244095 0z" fill-rule="nonzero"></path><path fill="#ff9900" d="m14.47127 -0.40652573l7.244095 0l0 16.125984l-7.244095 0z" fill-rule="nonzero"></path><path fill="#ff0000" d="m9.14164 -0.40682414l6.078741 0l0 16.125984l-6.078741 0z" fill-rule="nonzero"></path><path fill="#999999" d="m9.5768385 15.408398l0 0c0 -0.56534195 0.4583006 -1.0236425 1.0236425 -1.0236425l23.842478 0c0.2714882 0 0.53185654 0.10784817 0.72382355 0.29981804c0.19197083 0.19197083 0.29981995 0.45233822 0.29981995 0.7238245l0 4.094448c0 0.56534195 -0.45830154 1.0236416 -1.0236435 1.0236416l-23.842478 0c-0.56534195 0 -1.0236425 -0.45829964 -1.0236425 -1.0236416z" fill-rule="nonzero"></path><path stroke="#000000" stroke-width="1.0" stroke-linejoin="round" stroke-linecap="butt" d="m9.5768385 15.408398l0 0c0 -0.56534195 0.4583006 -1.0236425 1.0236425 -1.0236425l23.842478 0c0.2714882 0 0.53185654 0.10784817 0.72382355 0.29981804c0.19197083 0.19197083 0.29981995 0.45233822 0.29981995 0.7238245l0 4.094448c0 0.56534195 -0.45830154 1.0236416 -1.0236435 1.0236416l-23.842478 0c-0.56534195 0 -1.0236425 -0.45829964 -1.0236425 -1.0236416z" fill-rule="nonzero"></path><path fill="#666666" d="m20.429918 31.847584l0 0c0 -0.3479023 0.2820301 -0.6299343 0.6299343 -0.6299343l2.519659 0l0 0c0.16706848 0 0.3272953 0.0663681 0.44543076 0.18450356c0.11813545 0.11813545 0.18450356 0.27836227 0.18450356 0.44543076l0 11.212574c0 0.3479004 -0.282032 0.6299324 -0.6299343 0.6299324l-2.519659 0c-0.3479042 0 -0.6299343 -0.282032 -0.6299343 -0.6299324z" fill-rule="nonzero"></path><path stroke="#000000" stroke-width="1.0" stroke-linejoin="round" stroke-linecap="butt" d="m20.429918 31.847584l0 0c0 -0.3479023 0.2820301 -0.6299343 0.6299343 -0.6299343l2.519659 0l0 0c0.16706848 0 0.3272953 0.0663681 0.44543076 0.18450356c0.11813545 0.11813545 0.18450356 0.27836227 0.18450356 0.44543076l0 11.212574c0 0.3479004 -0.282032 0.6299324 -0.6299343 0.6299324l-2.519659 0c-0.3479042 0 -0.6299343 -0.282032 -0.6299343 -0.6299324z" fill-rule="nonzero"></path><path fill="#000000" fill-opacity="0.0" d="m35.466602 17.455622l3.4645653 0" fill-rule="nonzero"></path><path stroke="#000000" stroke-width="1.0" stroke-linejoin="round" stroke-linecap="butt" d="m35.466602 17.455622l3.4645653 0" fill-rule="nonzero"></path><path fill="#000000" fill-opacity="0.0" d="m38.422512 17.113756l0 8.755905" fill-rule="nonzero"></path><path stroke="#000000" stroke-width="1.0" stroke-linejoin="round" stroke-linecap="butt" d="m38.422512 17.113756l0 8.755905" fill-rule="nonzero"></path><path fill="#000000" fill-opacity="0.0" d="m38.829395 25.47244l-16.440945 0" fill-rule="nonzero"></path><path stroke="#000000" stroke-width="1.0" stroke-linejoin="round" stroke-linecap="butt" d="m38.829395 25.47244l-16.440945 0" fill-rule="nonzero"></path><path fill="#000000" fill-opacity="0.0" d="m22.40361 25.005785l0 6.2677174" fill-rule="nonzero"></path><path stroke="#000000" stroke-width="1.0" stroke-linejoin="round" stroke-linecap="butt" d="m22.40361 25.005785l0 6.2677174" fill-rule="nonzero"></path></g></svg>

